<svg width="119" height="60" viewBox="0 0 119 60" fill="none" xmlns="http://www.w3.org/2000/svg">
<path fill-rule="evenodd" clip-rule="evenodd" d="M0.0555551 31.8934C0.0555551 26.3934 18.0556 7.89339 20.5555 5.89339C23.0555 3.89339 27.0555 2.89339 29.0555 5.89339C31.0556 8.89339 29.0555 34.8934 29.0555 34.8934C29.0555 34.8934 37.0555 32.3934 39.0556 34.8934C41.0556 37.3934 39.0556 42.8934 39.0556 42.8934C39.0556 42.8934 29.0555 39.8934 29.0555 42.8934V51.8934H21.0556L24.0555 42.3934C24.0555 42.3934 3.55556 43.3934 1.55556 40.8934C-0.065395 38.8672 -0.0441699 37.8263 0.022099 34.5765C0.0375955 33.8165 0.0555551 32.9358 0.0555551 31.8934ZM24.0555 17.3934C23.0555 8.39339 8.05556 29.8934 8.05556 34.8934C8.05556 39.8934 24.0555 37.3934 24.0555 37.3934C24.0555 37.3934 25.0556 26.3934 24.0555 17.3934Z" fill="#FF66FF"/>
<path fill-rule="evenodd" clip-rule="evenodd" d="M74.3618 40.662C72.3288 35.5515 82.216 11.7084 83.7997 8.92596C85.3833 6.14354 88.7304 3.73585 91.6977 5.78413C94.6649 7.83242 102.417 32.7304 102.417 32.7304C102.417 32.7304 108.926 27.4504 111.709 29.0341C114.491 30.6178 114.666 36.4675 114.666 36.4675C114.666 36.4675 104.265 37.3763 105.374 40.1638L108.701 48.5264L101.267 51.4834L100.543 41.5473C100.543 41.5473 81.8646 50.0539 79.0822 48.4702C76.8271 47.1866 76.4621 46.2116 75.3224 43.1674C75.0559 42.4556 74.7471 41.6306 74.3618 40.662ZM91.3025 18.3178C87.0467 10.3249 81.056 35.8466 82.9041 40.4925C84.7522 45.1384 98.695 36.9014 98.695 36.9014C98.695 36.9014 95.5583 26.3108 91.3025 18.3178Z" fill="#FF66FF"/>
<path fill-rule="evenodd" clip-rule="evenodd" d="M54.1522 2.53437C52.5683 2.26718 50.6518 3.97214 50.3191 5.94427L43.8029 44.5715C43.6654 45.387 43.396 49.398 46.9596 49.9992L64.3818 52.9382C64.3818 52.9382 65.9656 53.2054 66.2983 51.2333L73.2847 9.81842C73.6174 7.84629 73.5541 5.80736 69.9905 5.2062L54.1522 2.53437ZM68.9725 13.6546C69.3884 11.1894 68.2005 10.989 67.0126 10.7886C65.8248 10.5882 59.5726 9.02648 59.1766 8.95968C58.7807 8.89289 54.9043 7.73189 54.8211 8.22492C54.7379 8.71795 48.8725 38.6594 48.623 40.1385C48.3735 41.6176 61.4202 46.3539 61.4202 46.3539C61.4202 46.3539 62.6081 46.5543 63.0872 46.128C63.5664 45.7018 68.5567 16.1197 68.9725 13.6546Z" fill="#FF66FF"/>
</svg>
